<?xml version="1.0" encoding="utf-8"?>
<!-- Generator: Adobe Illustrator 18.0.0, SVG Export Plug-In . SVG Version: 6.00 Build 0)  -->
<!DOCTYPE svg PUBLIC "-//W3C//DTD SVG 1.1//EN" "http://www.w3.org/Graphics/SVG/1.1/DTD/svg11.dtd">
<svg version="1.1" id="Layer_1" xmlns="http://www.w3.org/2000/svg" xmlns:xlink="http://www.w3.org/1999/xlink" x="0px" y="0px"
	 viewBox="0 0 30 30" enable-background="new 0 0 30 30" xml:space="preserve">
<circle cx="15" cy="15" r="15"/>
<g>
	<path fill="#FFFFFF" d="M15.9,13.3c0.2,0.4,0.3,0.7,0.3,1c0,0.4-0.1,0.7-0.3,0.9h4v1.4l-1.9,0c0.5,0.3,0.8,0.7,1.1,1.1
		s0.4,1,0.4,1.5c0,1.2-0.4,2.1-1.2,2.7c-0.8,0.7-2,1-3.4,1c-1.4,0-2.5-0.3-3.3-1s-1.2-1.6-1.2-2.7c0-1.1,0.5-2,1.4-2.7l-1.9,0v-1.4
		h4.2c0.3-0.3,0.5-0.6,0.5-1c0-0.3-0.1-0.7-0.3-1H9.9v-1.5h5.9c0.7,0,1.2,0,1.6-0.1c0.3-0.1,0.6-0.2,0.8-0.4
		c0.2-0.2,0.3-0.5,0.3-0.8c0-0.8-0.4-1.7-1.3-2.5L18.5,7c0.5,0.6,0.9,1.2,1.2,1.7c0.3,0.6,0.4,1.2,0.4,1.8c0,0.5-0.1,0.9-0.4,1.4
		s-0.6,0.8-1.1,1s-1.3,0.4-2.4,0.4H15.9z M14.9,16.7c-1,0-1.7,0.2-2.2,0.7s-0.8,1-0.8,1.8c0,0.7,0.3,1.3,0.8,1.7
		c0.5,0.4,1.2,0.6,2.2,0.6s1.7-0.2,2.2-0.6c0.5-0.4,0.8-1,0.8-1.7c0-0.8-0.3-1.4-0.8-1.8S15.9,16.7,14.9,16.7z"/>
</g>
</svg>
