<?xml version="1.0" encoding="utf-8"?>
<!-- Generator: Adobe Illustrator 18.0.0, SVG Export Plug-In . SVG Version: 6.00 Build 0)  -->
<!DOCTYPE svg PUBLIC "-//W3C//DTD SVG 1.1//EN" "http://www.w3.org/Graphics/SVG/1.1/DTD/svg11.dtd">
<svg version="1.1" id="Layer_1" xmlns="http://www.w3.org/2000/svg" xmlns:xlink="http://www.w3.org/1999/xlink" x="0px" y="0px"
	 viewBox="32.1 0 193.6 193.7" enable-background="new 32.1 0 193.6 193.7" xml:space="preserve">
<circle cx="128.9" cy="96.8" r="96.8"/>
<g>
	<path fill="#FFFFFF" d="M165.7,84.1h-12.3V150h-9.7v-29.7h-26.5v4.5c0,2.6-0.6,3.9-1.3,5.8c-1.3,1.3-2.6,1.9-4.5,1.9
		c-1.9,0-3.9-0.6-6.5-2.6c-2.6-1.9-3.9-3.9-5.8-6.5c-1.3-2.6-2.6-4.5-2.6-6.5c0-1.9,0.6-3.2,1.9-3.9c1.3-0.6,3.2-1.3,5.2-1.3h3.2
		V84.1H92.1v-9h73.6V84.1z M143.7,111.2V83.5h-26.5v27.8L143.7,111.2L143.7,111.2z"/>
</g>
</svg>
