<?xml version="1.0" encoding="UTF-8" standalone="no"?>
<!-- Generator: Adobe Illustrator 18.0.0, SVG Export Plug-In . SVG Version: 6.00 Build 0)  -->

<svg
   version="1.1"
   id="Layer_1"
   x="0px"
   y="0px"
   viewBox="31.1 0 195.6 195.6"
   enable-background="new 31.1 0 195.6 195.6"
   xml:space="preserve"
   sodipodi:docname="ने.svg"
   width="195.60001"
   height="195.60001"
   inkscape:version="1.1.1 (3bf5ae0d25, 2021-09-20)"
   xmlns:inkscape="http://www.inkscape.org/namespaces/inkscape"
   xmlns:sodipodi="http://sodipodi.sourceforge.net/DTD/sodipodi-0.dtd"
   xmlns="http://www.w3.org/2000/svg"
   xmlns:svg="http://www.w3.org/2000/svg"><defs
   id="defs13">
	
	
</defs><sodipodi:namedview
   id="namedview11"
   pagecolor="#ffffff"
   bordercolor="#666666"
   borderopacity="1.0"
   inkscape:pageshadow="2"
   inkscape:pageopacity="0.0"
   inkscape:pagecheckerboard="0"
   showgrid="false"
   inkscape:zoom="1.5978588"
   inkscape:cx="113.27659"
   inkscape:cy="151.13976"
   inkscape:window-width="1920"
   inkscape:window-height="1017"
   inkscape:window-x="-8"
   inkscape:window-y="-8"
   inkscape:window-maximized="1"
   inkscape:current-layer="text1743" />
<path
   id="circle2"
   d="m 226.70001,97.800003 a 97.800003,97.800003 0 0 1 -97.8,97.800007 A 97.800003,97.800003 0 0 1 31.100006,97.800003 97.800003,97.800003 0 0 1 128.90001,0 a 97.800003,97.800003 0 0 1 97.8,97.800003 z" />
<g
   aria-label="ने"
   id="text1743"
   style="font-size:124.602px;line-height:1.25;font-family:'AMS Gourav Bold';-inkscape-font-specification:'AMS Gourav Bold, ';stroke-width:3.115"><path
     d="m 173.25296,84.262922 h -18.55645 v 70.575348 h -10.70799 v -38.87728 h -28.7777 q 1.52102,1.76438 2.61615,4.01549 1.09514,2.25111 1.09514,5.53652 0,18.67813 -15.75778,18.67813 -3.772127,0 -6.93585,-1.39934 -3.102882,-1.39934 -5.353992,-3.83297 -2.190269,-2.49448 -3.407086,-5.84072 -1.216816,-3.40709 -1.216816,-7.36174 0,-19.5299 21.476804,-19.5299 h 36.26113 V 84.262922 H 84.547043 V 74.528391 H 173.25296 Z M 96.106798,126.18225 q 0,8.45687 7.057532,8.45687 6.38829,0 6.38829,-9.12612 0,-1.58186 -0.42589,-2.92036 -0.42588,-1.39934 -1.15597,-2.55532 -0.73009,-1.15597 -1.6427,-2.06858 -0.85178,-0.91262 -1.76439,-1.52102 -4.745582,0.85177 -6.631647,3.16372 -1.825225,2.31195 -1.825225,6.57081 z"
     style="font-family:'Baskerville Old Face';-inkscape-font-specification:'Baskerville Old Face';fill:#ffffff"
     id="path32400" /><path
     d="m 156.82594,76.536138 -6.44913,6.449127 -33.34077,-34.861789 7.3009,-7.36174 z m -7.11838,2.433633 z"
     style="font-family:'Baskerville Old Face';-inkscape-font-specification:'Baskerville Old Face';fill:#ffffff"
     id="path32402" /></g>
</svg>
