<?xml version="1.0" encoding="utf-8"?>
<!-- Generator: Adobe Illustrator 18.0.0, SVG Export Plug-In . SVG Version: 6.00 Build 0)  -->
<!DOCTYPE svg PUBLIC "-//W3C//DTD SVG 1.1//EN" "http://www.w3.org/Graphics/SVG/1.1/DTD/svg11.dtd">
<svg version="1.1" id="Layer_1" xmlns="http://www.w3.org/2000/svg" xmlns:xlink="http://www.w3.org/1999/xlink" x="0px" y="0px"
	 viewBox="65.2 0 192.6 193.7" enable-background="new 65.2 0 192.6 193.7" xml:space="preserve">
<circle cx="162" cy="96.8" r="96.8"/>
<g>
	<path fill="#FFFFFF" d="M157.8,101c2.8-1,5.6-2,8.9-3c6.4-1.8,11-3.9,13.8-6.3c2.9-2.4,4.2-5.6,4.2-9.8c0-3.2-1-5.8-3.1-8.1
		c-2-2.1-4.7-3.2-8.1-3.2c-3.9,0-6.9,1-9,3c-2.1,2-3.2,4.6-3.2,7.8c0,3.2,0.7,5.9,2.3,8.3l-7.3,1.6c-1.7-3.2-2.6-6.7-2.6-10.2
		c0-5.3,1.8-9.6,5.5-12.8c3.7-3.2,8.4-4.8,14.1-4.8c5.7,0,10.2,1.7,13.7,5.1c3.5,3.5,5.3,7.7,5.3,12.7c0,4.5-1,8.2-3.1,11
		c-2.1,2.9-5.4,5.3-9.9,7.5c4.5,1.1,8,3.3,10.5,6.6c2.5,3.2,3.8,7.1,3.8,11.6c0,7-2.3,12.4-7,16.3c-4.7,3.9-11.3,5.8-19.8,5.8
		c-7.3,0-13.8-1.6-19.3-4.9c-5.6-3.3-9.9-8-13-14.1c-3-6.1-4.6-13.3-4.6-21.6c0-8.9,1.9-17.3,5.7-25.2c3.9-7.9,9.4-14.6,16.7-20.4
		l4.7,5.5c-6.3,4.9-11.2,10.7-14.4,17.6c-3.3,6.8-5,14.2-5,22.5c0,6.4,1.2,12.3,3.5,17.4c2.4,5.1,5.6,9,10,11.8
		c4.4,2.8,9.6,4.1,15.5,4.1c4,0,7.4-0.5,10.3-1.7c2.9-1.1,5-2.9,6.6-5.1s2.3-4.8,2.3-7.9c0-4.1-1.2-7.3-3.6-9.5
		c-2.4-2.3-5.6-3.4-9.9-3.4c-4,0-7.7,0.7-11,2.3L157.8,101z"/>
</g>
</svg>
