<?xml version="1.0" encoding="utf-8"?>
<!-- Generator: Adobe Illustrator 18.0.0, SVG Export Plug-In . SVG Version: 6.00 Build 0)  -->
<!DOCTYPE svg PUBLIC "-//W3C//DTD SVG 1.1//EN" "http://www.w3.org/Graphics/SVG/1.1/DTD/svg11.dtd">
<svg version="1.1" id="Layer_1" xmlns="http://www.w3.org/2000/svg" xmlns:xlink="http://www.w3.org/1999/xlink" x="0px" y="0px"
	 viewBox="0 0 30 31.1" enable-background="new 0 0 30 31.1" xml:space="preserve">
<circle cx="15" cy="16.1" r="15"/>
<g>
	<path fill="#FFFFFF" d="M9.5,18.9c0.3,0.8,0.9,1.5,1.8,1.9c0.9,0.4,2.2,0.7,3.6,0.7c1.6,0,2.9-0.3,3.8-0.8s1.5-1.3,1.7-2.3
		c-0.6,0.5-1.3,0.8-2.1,0.8c-0.8,0-1.4-0.2-1.9-0.7c-0.5-0.4-0.7-1-0.7-1.8c0-0.6,0.2-1,0.5-1.5c0.4-0.4,0.8-0.7,1.4-0.8
		c-0.5-0.1-1.2-0.2-2-0.2l0.4-1.5c1.9,0.3,3.4,0.8,4.4,1.7s1.5,2,1.5,3.4c0,1.6-0.6,2.8-1.8,3.7c-1.2,0.9-2.9,1.4-5.1,1.4
		c-2.3,0-4-0.4-5.3-1.3S8,19.6,8,18c0-1.2,0.3-2.1,1-2.9s1.6-1.1,2.6-1.1c0.8,0,1.5,0.2,1.9,0.7s0.7,1,0.7,1.8c0,0.8-0.3,1.5-0.8,2
		c-0.6,0.5-1.3,0.7-2.3,0.7C10.5,19.2,10,19.1,9.5,18.9z M9.4,17.4c0.4,0.3,0.9,0.4,1.4,0.4c1.2,0,1.8-0.4,1.8-1.3
		c0-0.3-0.1-0.6-0.3-0.8c-0.2-0.2-0.5-0.3-0.9-0.3c-0.5,0-1,0.2-1.3,0.5C9.8,16.3,9.6,16.8,9.4,17.4z M9.7,10.7V9.2h7.7
		c0.8,0,1.4,0.1,1.8,0.2s0.8,0.3,1,0.5c0.3,0.2,0.5,0.5,0.6,0.8c0.1,0.3,0.2,0.7,0.2,1.1c0,0.4-0.1,0.8-0.2,1.1
		c-0.2,0.4-0.4,0.6-0.7,0.9c-0.3,0.2-0.7,0.4-1.1,0.5s-1,0.1-1.7,0.1h-2v-1.5h2.2c0.5,0,0.9,0,1.1-0.1s0.4-0.2,0.5-0.3
		c0.1-0.2,0.2-0.4,0.2-0.6c0-0.3-0.1-0.5-0.2-0.7c-0.1-0.2-0.3-0.3-0.5-0.3c-0.2-0.1-0.6-0.1-1-0.1H9.7z M20.5,16.6
		c-0.2-0.3-0.4-0.6-0.7-0.8s-0.6-0.3-1-0.3c-0.4,0-0.7,0.1-1,0.3s-0.4,0.5-0.4,0.9c0,0.4,0.1,0.6,0.3,0.8s0.6,0.3,1,0.3
		c0.4,0,0.8-0.1,1.1-0.3S20.4,17,20.5,16.6z"/>
</g>
</svg>
